<svg width="617" height="725" viewBox="0 0 617 725" fill="none" xmlns="http://www.w3.org/2000/svg">
<path d="M0 724.537V0H216.574C289.421 0 351.44 10.8287 402.63 32.4861C453.82 54.1434 494.838 83.0199 525.683 119.115C557.185 155.211 580.154 195.572 594.593 240.2C609.031 284.827 616.25 329.782 616.25 375.066C616.25 428.881 606.406 477.446 586.717 520.761C567.685 563.419 541.434 600.171 507.963 631.016C474.493 661.206 435.772 684.504 391.801 700.911C347.83 716.661 301.234 724.537 252.013 724.537H0ZM142.742 586.717H227.402C263.498 586.717 296.312 582.123 325.845 572.935C355.377 563.091 380.644 548.981 401.645 530.605C423.303 512.229 439.71 489.259 450.867 461.695C462.68 433.475 468.586 401.317 468.586 365.222C468.586 317.969 460.711 279.577 444.96 250.044C429.866 219.855 410.833 196.557 387.863 180.15C365.55 163.743 342.58 152.586 318.954 146.679C295.328 140.117 275.311 136.835 258.904 136.835H142.742V586.717Z" fill="white"/>
</svg>
