<svg width="874" height="251" viewBox="0 0 874 251" fill="none" xmlns="http://www.w3.org/2000/svg">
<path d="M769.736 250.5L842.486 88.75H873.986L803.486 250.5H769.736ZM798.986 198.5L745.486 88.75H784.736L825.986 181L798.986 198.5Z" fill="white"/>
<path d="M644.23 201C635.064 201 627.314 199.5 620.98 196.5C614.814 193.333 609.397 189.25 604.73 184.25L607.48 176.75V198H572.48V0.75H607.23V107.5V96.25C611.564 92.5833 617.314 89.5 624.48 87C631.647 84.5 639.814 83.25 648.98 83.25C658.48 83.25 667.147 85.5 674.98 90C682.814 94.5 689.064 101.083 693.73 109.75C698.564 118.25 700.98 128.667 700.98 141C700.98 153.333 698.314 164 692.98 173C687.814 182 680.897 188.917 672.23 193.75C663.564 198.583 654.23 201 644.23 201ZM636.48 171.5C641.647 171.5 646.397 170.167 650.73 167.5C655.23 164.833 658.814 161.167 661.48 156.5C664.147 151.833 665.48 146.583 665.48 140.75C665.48 134.917 664.147 129.75 661.48 125.25C658.814 120.75 655.23 117.25 650.73 114.75C646.397 112.083 641.647 110.75 636.48 110.75C631.98 110.75 627.73 111.5 623.73 113C619.897 114.333 616.564 116.333 613.73 119C611.064 121.5 608.98 124.583 607.48 128.25V155C609.48 158.667 611.814 161.75 614.48 164.25C617.314 166.583 620.564 168.417 624.23 169.75C627.897 170.917 631.98 171.5 636.48 171.5Z" fill="white"/>
<path d="M495.186 250.5L422.436 88.75H390.936L461.436 250.5H495.186ZM465.936 198.5L519.436 88.75H480.186L438.936 181L465.936 198.5Z" fill="white"/>
<path d="M266.371 201C256.204 201 246.954 199 238.621 195C230.454 190.833 223.954 184.5 219.121 176C214.288 167.5 211.871 156.667 211.871 143.5C211.871 131.167 214.371 120.5 219.371 111.5C224.371 102.5 230.954 95.5833 239.121 90.75C247.288 85.75 255.954 83.25 265.121 83.25C275.954 83.25 284.121 85.0833 289.621 88.75C295.288 92.25 299.954 96.1667 303.621 100.5L302.121 104.75L305.371 88.75H337.871V198H302.871V174.25L305.621 181.75C305.288 181.75 304.288 182.75 302.621 184.75C300.954 186.583 298.454 188.833 295.121 191.5C291.954 194 287.954 196.167 283.121 198C278.454 200 272.871 201 266.371 201ZM276.371 172.5C280.538 172.5 284.288 171.917 287.621 170.75C290.954 169.417 293.871 167.583 296.371 165.25C298.871 162.75 301.038 159.667 302.871 156V129.25C301.538 125.583 299.538 122.5 296.871 120C294.204 117.333 291.038 115.333 287.371 114C283.704 112.5 279.621 111.75 275.121 111.75C270.121 111.75 265.454 113.083 261.121 115.75C256.954 118.25 253.621 121.75 251.121 126.25C248.621 130.75 247.371 135.917 247.371 141.75C247.371 147.583 248.704 152.833 251.371 157.5C254.038 162.167 257.538 165.833 261.871 168.5C266.371 171.167 271.204 172.5 276.371 172.5Z" fill="white"/>
<path d="M0.75 198V14H55.75C74.25 14 90 16.75 103 22.25C116 27.75 126.417 35.0833 134.25 44.25C142.25 53.4167 148.083 63.6667 151.75 75C155.417 86.3333 157.25 97.75 157.25 109.25C157.25 122.917 154.75 135.25 149.75 146.25C144.917 157.083 138.25 166.417 129.75 174.25C121.25 181.917 111.417 187.833 100.25 192C89.0833 196 77.25 198 64.75 198H0.75ZM37 163H58.5C67.6667 163 76 161.833 83.5 159.5C91 157 97.4167 153.417 102.75 148.75C108.25 144.083 112.417 138.25 115.25 131.25C118.25 124.083 119.75 115.917 119.75 106.75C119.75 94.75 117.75 85 113.75 77.5C109.917 69.8333 105.083 63.9167 99.25 59.75C93.5833 55.5833 87.75 52.75 81.75 51.25C75.75 49.5833 70.6667 48.75 66.5 48.75H37V163Z" fill="white"/>
</svg>
